<svg xmlns="http://www.w3.org/2000/svg" viewBox="0 0 87.61 33.17"><defs><style>.cls-1{fill:#fff;stroke:#fff;stroke-miterlimit:10;}</style></defs><g id="レイヤー_2" data-name="レイヤー 2"><g id="header"><path class="cls-1" d="M10.28,14.82A13.29,13.29,0,0,1,5,11.77,6.39,6.39,0,0,1,3.07,7.08,6.37,6.37,0,0,1,5,2.44,6.39,6.39,0,0,1,9.7.5a6.4,6.4,0,0,1,4.68,1.93,5.6,5.6,0,0,1,1.49,2.33l-1.58.62a5,5,0,0,0-1.16-1.76A4.73,4.73,0,0,0,9.7,2.22,4.7,4.7,0,0,0,6.26,3.63,4.7,4.7,0,0,0,4.83,7.08a4.7,4.7,0,0,0,1.43,3.44,13.1,13.1,0,0,0,3.67,2.4,15.61,15.61,0,0,1,6.31,3.77A8.85,8.85,0,0,1,19,23.21a8.94,8.94,0,0,1-2.71,6.57A8.91,8.91,0,0,1,9.7,32.49a8.9,8.9,0,0,1-6.55-2.73,8.92,8.92,0,0,1-2.6-5l1.67-.61a7.23,7.23,0,0,0,2.16,4.44,7.26,7.26,0,0,0,5.32,2.2A7.26,7.26,0,0,0,15,28.55a7.27,7.27,0,0,0,2.2-5.34A7.23,7.23,0,0,0,15,17.9,14.09,14.09,0,0,0,10.28,14.82Z"/><path class="cls-1" d="M23.66.87h1.76V13.94a7.4,7.4,0,0,1,5.35-2.15,7.37,7.37,0,0,1,7.71,7.5V32.12H36.73V19.45A5.61,5.61,0,0,0,35,15.28a5.95,5.95,0,0,0-9.54,1.59V32.12H23.66Z"/><path class="cls-1" d="M47.65,6.65a1.74,1.74,0,0,1,0,2.48,1.75,1.75,0,1,1-2.48-2.48,1.76,1.76,0,0,1,2.48,0Zm-.36,6.29V32.12H45.53V12.94Z"/><path class="cls-1" d="M54.34,12.94H56.1v3.5a11.69,11.69,0,0,1,1.27-1.51,7.32,7.32,0,0,1,4.76-2.44v1.92a5.4,5.4,0,0,0-3.43,1.85,8.47,8.47,0,0,0-2.6,6v9.9H54.34Z"/><path class="cls-1" d="M76.39,11.2A10.31,10.31,0,0,1,84,14.35,10.36,10.36,0,0,1,87.11,22,10.32,10.32,0,0,1,84,29.52a10.71,10.71,0,0,1-15.17,0A10.33,10.33,0,0,1,65.67,22a10.36,10.36,0,0,1,3.14-7.6A10.34,10.34,0,0,1,76.39,11.2Zm-6.27,4.48A8.55,8.55,0,0,0,67.52,22a8.87,8.87,0,0,0,17.74,0,8.55,8.55,0,0,0-2.6-6.27,8.86,8.86,0,0,0-12.54,0Z"/></g></g></svg>